<svg width="15" height="17" viewBox="0 0 15 17" fill="none" xmlns="http://www.w3.org/2000/svg">
<path d="M5.78125 0.625C5.40503 0.625 5.02039 0.745484 4.74805 0.994141C4.47571 1.2428 4.34375 1.59399 4.34375 1.9375V2.59375H0.03125V3.90625H0.75V14.4062C0.75 15.4855 1.72424 16.375 2.90625 16.375H11.5312C12.7133 16.375 13.6875 15.4855 13.6875 14.4062V3.90625H14.4062V2.59375H10.0938V1.9375C10.0938 1.59399 9.96179 1.2428 9.68945 0.994141C9.41711 0.745484 9.03247 0.625 8.65625 0.625H5.78125ZM5.78125 1.9375H8.65625V2.59375H5.78125V1.9375ZM2.1875 3.90625H12.25V14.4062C12.25 14.7703 11.9299 15.0625 11.5312 15.0625H2.90625C2.50757 15.0625 2.1875 14.7703 2.1875 14.4062V3.90625ZM3.625 5.875V13.0938H5.0625V5.875H3.625ZM6.5 5.875V13.0938H7.9375V5.875H6.5ZM9.375 5.875V13.0938H10.8125V5.875H9.375Z" fill="#F70D0D"/>
</svg>
